<svg width="195" height="209" viewBox="0 0 195 209" fill="none" xmlns="http://www.w3.org/2000/svg">
<path d="M188.309 132.339L193.538 132.376L193.97 71.9975L191.106 61.0307L183.379 44.7325L174.169 30.0126L163.14 18.2812L151.434 9.72293L136.771 3.43873L128.452 1.26062L1.47941 1.506e-05L0.999926 67.0873L17.9953 67.2087L40.3581 70.8996L58.7838 76.6811L75.0674 84.919L90.6873 94.5645L106.131 105.974L118.334 113.477L136.411 122.434L149.127 126.762L163.648 130.044L177.692 131.557L188.309 132.339Z" fill="#008481"/>
<path d="M6.19418 72.0356L0.964846 71.9982L0.520132 134.22L3.38101 145.521L11.1054 162.316L20.3122 177.483L31.3387 189.57L43.0423 198.387L57.7043 204.86L66.0229 207.103L192.995 208.374L193.489 139.238L176.494 139.117L154.132 135.318L135.707 129.364L119.425 120.878L103.808 110.942L88.3663 99.1869L76.1647 91.458L58.0905 82.2315L45.3752 77.774L30.8545 74.3952L16.8111 72.8392L6.19418 72.0356Z" fill="#008481"/>
<path d="M84 140C84 156.616 71.194 170 55.5 170C39.806 170 27 156.616 27 140C27 123.384 39.806 110 55.5 110C71.194 110 84 123.384 84 140Z" stroke="white" stroke-width="2"/>
<path d="M47 150.667L33.875 127C27.7286 136.6 30.2469 147 32.2743 151L47 150.667Z" fill="white" stroke="white"/>
<path d="M42.2447 137.442L56.4809 112.737C44.9198 111.697 37.0247 119.42 34.5223 123.412L42.2447 137.442Z" fill="white" stroke="white"/>
<path d="M51.1048 126.406L78.5893 126.398C73.4446 115.469 63.0677 112.375 58.5223 112.195L51.1048 126.406Z" fill="white" stroke="white"/>
<path d="M64 128.347L77.8971 153C84.405 143 81.7386 132.167 79.5919 128L64 128.347Z" fill="white" stroke="white"/>
<path d="M69.7228 142.281L55.3424 166.895C66.8972 168.009 74.8373 160.337 77.363 156.362L69.7228 142.281Z" fill="white" stroke="white"/>
<path d="M60.2792 152.845L32.7948 152.938C37.9703 163.852 48.3559 166.913 52.9018 167.079L60.2792 152.845Z" fill="white" stroke="white"/>
<path d="M164 66C164 82.6159 151.194 96 135.5 96C119.806 96 107 82.6159 107 66C107 49.3841 119.806 36 135.5 36C151.194 36 164 49.3841 164 66Z" stroke="white" stroke-width="2"/>
<path d="M127 76.6667L113.875 53C107.729 62.6 110.247 73 112.274 77L127 76.6667Z" fill="white" stroke="white"/>
<path d="M122.245 63.4424L136.481 38.7367C124.92 37.697 117.025 45.4202 114.522 49.4117L122.245 63.4424Z" fill="white" stroke="white"/>
<path d="M131.105 52.4059L158.589 52.3983C153.445 41.4691 143.068 38.3755 138.522 38.1948L131.105 52.4059Z" fill="white" stroke="white"/>
<path d="M144 54.3472L157.897 79C164.405 69 161.739 58.1667 159.592 54L144 54.3472Z" fill="white" stroke="white"/>
<path d="M149.723 68.2814L135.342 92.8947C146.897 94.009 154.837 86.337 157.363 82.3617L149.723 68.2814Z" fill="white" stroke="white"/>
<path d="M140.279 78.8451L112.795 78.9384C117.97 89.8515 128.356 92.9128 132.902 93.0793L140.279 78.8451Z" fill="white" stroke="white"/>
</svg>
